<?xml version="1.0" encoding="utf-8"?>
<!-- Generator: Adobe Illustrator 27.5.0, SVG Export Plug-In . SVG Version: 6.00 Build 0)  -->
<svg version="1.1" id="Ebene_1" xmlns="http://www.w3.org/2000/svg" xmlns:xlink="http://www.w3.org/1999/xlink" x="0px" y="0px"
	 viewBox="0 0 1000 1000" style="enable-background:new 0 0 1000 1000;" xml:space="preserve">
<style type="text/css">
	.st0{fill:#6CBD98;}
	.st1{fill:#ED9A00;}
	.st2{fill:#B3B3B2;}
	.st3{opacity:0.7;fill:#2D296C;}
	.st4{opacity:0.7;fill:#6CBD98;}
	.st5{opacity:0.7;fill:#ED9A00;}
	.st6{opacity:0.7;fill:#0092C6;}
	.st7{opacity:0.75;}
</style>
<g>
	<path class="st0" d="M242.8,796l14.9-73.8H287l-29,115.9h-25.4l-21.5-72.9l-21.5,72.9h-25.3l-29-115.9h29.3l14.8,73.7l20.8-73.7
		h21.9L242.8,796z"/>
	<path class="st0" d="M354.2,840.3c-16.7,0-30.2-5.2-40.7-15.6c-10.5-10.4-15.7-24.3-15.7-41.7v-3c0-11.6,2.2-22,6.6-31.2
		c4.4-9.2,10.7-16.2,18.7-21.2c8.1-5,17.3-7.4,27.7-7.4c15.5,0,27.8,5,36.7,15c8.9,10,13.4,24.2,13.4,42.5v12.6h-72.3
		c1,7.6,3.9,13.6,8.9,18.2c4.9,4.6,11.2,6.9,18.7,6.9c11.7,0,20.8-4.3,27.4-13l14.9,17c-4.5,6.6-10.7,11.7-18.5,15.4
		S363.7,840.3,354.2,840.3z M350.8,745c-6,0-10.9,2.1-14.6,6.2c-3.7,4.2-6.1,10.1-7.2,17.9h42.2v-2.5c-0.1-6.9-2-12.2-5.5-16
		C362.2,746.9,357.2,745,350.8,745z"/>
	<path class="st1" d="M442.4,692.5v29.7h23.5v10.5h-23.5V810c0,6.4,1.1,11.2,3.4,14.4c2.3,3.1,6.1,4.7,11.4,4.7
		c2.1,0,5.5-0.4,10.2-1.1l0.5,10.4c-3.3,1.2-7.8,1.8-13.4,1.8c-8.6,0-14.9-2.6-18.8-7.7c-3.9-5.1-5.9-12.6-5.9-22.5v-77.3h-20.9
		v-10.5h20.9v-29.7H442.4z"/>
	<path class="st1" d="M544.4,733.1c-2.7-0.5-5.5-0.8-8.5-0.8c-7.8,0-14.5,2.2-19.9,6.7c-5.4,4.5-9.3,10.9-11.6,19.4v79.6h-12.5
		V722.2h12.3l0.2,18.4c6.6-13.7,17.3-20.6,32-20.6c3.5,0,6.3,0.5,8.3,1.4L544.4,733.1z"/>
	<path class="st1" d="M631.7,838.1c-1.3-3.6-2.1-9-2.4-16.2c-4.4,5.9-10,10.4-16.8,13.5s-14,4.8-21.7,4.8c-10.9,0-19.7-3.1-26.5-9.3
		c-6.8-6.2-10.1-14.1-10.1-23.6c0-11.3,4.6-20.2,13.8-26.8c9.2-6.6,22-9.9,38.5-9.9h22.8v-13.2c0-8.3-2.5-14.8-7.5-19.5
		c-5-4.7-12.3-7.1-21.9-7.1c-8.7,0-16,2.3-21.7,6.9c-5.7,4.6-8.6,10.1-8.6,16.5l-12.6-0.1c0-9.2,4.2-17.2,12.6-23.9
		s18.7-10.1,31-10.1c12.7,0,22.6,3.2,30,9.7c7.3,6.5,11.1,15.5,11.3,27v54.8c0,11.2,1.2,19.6,3.5,25.2v1.3H631.7z M592.2,828.9
		c8.4,0,15.9-2.1,22.5-6.2c6.6-4.1,11.4-9.7,14.4-16.6v-25.5h-22.5c-12.5,0.1-22.3,2.5-29.4,7c-7.1,4.5-10.6,10.8-10.6,18.7
		c0,6.5,2.4,11.9,7.1,16.2C578.5,826.8,584.7,828.9,592.2,828.9z"/>
	<path class="st1" d="M717.1,829.4c8.7,0,16.1-2.5,22-7.6c5.9-5,9.1-11.5,9.6-19.5h12.1c-0.4,7.1-2.5,13.5-6.5,19.3
		c-4,5.8-9.3,10.4-15.9,13.7c-6.6,3.3-13.7,4.9-21.2,4.9c-14.9,0-26.7-5.3-35.4-15.9c-8.7-10.6-13.1-24.8-13.1-42.6v-3.9
		c0-11.4,2-21.5,5.9-30.3c3.9-8.8,9.5-15.6,16.8-20.4c7.3-4.8,15.9-7.2,25.7-7.2c12.5,0,22.7,3.8,30.8,11.4
		c8.1,7.6,12.4,17.5,13,29.9h-12.1c-0.6-9.1-3.8-16.4-9.6-22c-5.8-5.6-13.2-8.4-22.1-8.4c-11.3,0-20.1,4.2-26.4,12.5
		c-6.3,8.4-9.4,20.1-9.4,35.1v3.7c0,14.8,3.1,26.3,9.4,34.6C696.9,825.3,705.7,829.4,717.1,829.4z"/>
	<path class="st1" d="M812.8,779.7l-14.4,14.1v44.2h-12.6V673.6h12.6v105.3l11.9-13.1l43.4-43.6h15.8l-48.2,48.8l52.4,67.1h-15
		L812.8,779.7z"/>
</g>
<g>
	<path class="st2" d="M223,931.6v-47.7h3.8v2.5c3.4-2.1,6.9-3.2,10.6-3.2c3.7,0,6.5,1.3,8.3,4c1.8,2.7,2.7,7,2.7,13.1
		c0,6-1.1,10.4-3.2,13.1c-2.1,2.7-5.7,4-10.7,4c-2.7,0-5.2-0.3-7.7-0.9v15H223z M236.6,886.8c-1.4,0-2.9,0.2-4.6,0.7
		c-1.6,0.5-2.9,1-3.8,1.5l-1.4,0.7v23.4c2.9,0.5,5.5,0.8,7.6,0.8c3.7,0,6.3-1.1,7.8-3.2c1.5-2.1,2.3-5.6,2.3-10.5
		c0-4.9-0.7-8.4-2-10.4C241.2,887.9,239.3,886.8,236.6,886.8z"/>
	<path class="st2" d="M255.4,900.3c0-6.2,1-10.6,3.1-13.2c2-2.6,5.5-3.9,10.4-3.9c4.9,0,8.4,1.3,10.4,3.9c2,2.6,3.1,7,3.1,13.2
		s-0.9,10.6-2.8,13.2c-1.9,2.6-5.4,3.9-10.7,3.9c-5.2,0-8.8-1.3-10.7-3.9C256.4,910.9,255.4,906.5,255.4,900.3z M259.4,900.2
		c0,5.2,0.6,8.8,1.8,10.8c1.2,2,3.8,3,7.7,3c4,0,6.6-1,7.8-3c1.2-2,1.8-5.6,1.8-10.8c0-5.2-0.7-8.7-2-10.6c-1.4-1.9-3.9-2.9-7.5-2.9
		c-3.7,0-6.2,0.9-7.5,2.8S259.4,895,259.4,900.2z"/>
	<path class="st2" d="M287.6,883.9h3.9l7.1,29.5h0.9l8.4-28.8h4.1l8.4,28.8h1l7.1-29.5h3.9l-8.1,32.9h-6.7l-7.6-27.1l-7.7,27.1h-6.6
		L287.6,883.9z"/>
	<path class="st2" d="M360.2,913.5l1.9-0.2l0.1,3.2c-4.9,0.6-9,0.9-12.3,0.9c-4.6,0-7.9-1.4-9.7-4.2c-1.8-2.8-2.8-7-2.8-12.8
		c0-11.5,4.4-17.2,13.3-17.2c4.3,0,7.4,1.2,9.5,3.7c2.1,2.5,3.2,6.4,3.2,11.9l-0.1,3.2h-21.9c0,4,0.7,7,2,9c1.4,2,3.7,2.9,7,2.9
		C353.6,913.9,356.9,913.8,360.2,913.5z M341.4,898.7h18.2c0-4.3-0.7-7.4-2.1-9.3c-1.4-1.8-3.6-2.8-6.7-2.8c-3.1,0-5.4,1-7,2.9
		C342.2,891.5,341.4,894.5,341.4,898.7z"/>
	<path class="st2" d="M371.3,916.8v-32.9h3.8v4.7c1.6-1.1,3.5-2.2,5.8-3.3c2.3-1.1,4.4-1.8,6.4-2.1v3.9c-1.8,0.4-3.8,1-5.8,1.8
		c-2,0.8-3.6,1.5-4.7,2.1l-1.7,1v24.7H371.3z"/>
	<path class="st2" d="M413.7,913.5l1.9-0.2l0.1,3.2c-4.9,0.6-9,0.9-12.3,0.9c-4.6,0-7.9-1.4-9.7-4.2c-1.8-2.8-2.8-7-2.8-12.8
		c0-11.5,4.4-17.2,13.3-17.2c4.3,0,7.4,1.2,9.5,3.7c2.1,2.5,3.2,6.4,3.2,11.9l-0.1,3.2h-21.9c0,4,0.7,7,2,9c1.4,2,3.7,2.9,7,2.9
		C407.2,913.9,410.4,913.8,413.7,913.5z M394.9,898.7h18.2c0-4.3-0.7-7.4-2.1-9.3c-1.4-1.8-3.6-2.8-6.7-2.8c-3.1,0-5.4,1-7,2.9
		C395.7,891.5,394.9,894.5,394.9,898.7z"/>
	<path class="st2" d="M449,869.3v47.5h-3.9v-2.4c-3.4,2.1-6.8,3.1-10.3,3.1c-1.6,0-3-0.2-4.1-0.6s-2.3-1.1-3.5-2.2
		c-2.5-2.2-3.7-6.6-3.7-13.1c0-6.5,1-11.2,3.1-14.1c2.1-2.9,5.5-4.3,10.4-4.3c1.9,0,4.6,0.3,8.1,0.9v-14.8H449z M432.4,913.5
		c0.8,0.3,1.8,0.5,3.1,0.5c1.3,0,2.7-0.2,4.4-0.7c1.7-0.5,3-0.9,3.9-1.4l1.4-0.7v-23.6c-3.4-0.5-6.1-0.8-8-0.8
		c-3.7,0-6.2,1.1-7.6,3.4c-1.4,2.3-2.1,5.8-2.1,10.6c0,5.6,0.8,9.3,2.5,11C430.8,912.6,431.6,913.2,432.4,913.5z"/>
	<path class="st2" d="M486.6,883.3c4.3,0,7.3,1.3,9,3.8c1.7,2.5,2.5,6.9,2.5,13.2s-1.1,10.7-3.2,13.3c-2.1,2.6-6.1,3.9-11.9,3.9
		c-2.4,0-5.3-0.2-8.6-0.5l-1.7-0.1v-47.5h3.9v16.4C479.9,884.1,483.3,883.3,486.6,883.3z M476.6,913.5c3,0.3,5.4,0.4,7.3,0.4
		c1.8,0,3.5-0.3,4.9-0.8c1.5-0.5,2.6-1.4,3.4-2.7c0.8-1.3,1.3-2.7,1.6-4.3s0.4-3.7,0.4-6.4c0-4.6-0.5-8-1.6-10c-1.1-2-3.1-3-6.2-3
		c-1.5,0-3,0.2-4.6,0.6c-1.6,0.4-2.9,0.8-3.8,1.2l-1.3,0.5V913.5z"/>
	<path class="st2" d="M502.7,883.9h3.9l8.6,29.5h2.3l8.6-29.5h3.9l-13.9,47.7h-3.9l4.3-14.8h-4.4L502.7,883.9z"/>
	<path class="st2" d="M576.9,921.8c0,3.7-1.2,6.4-3.5,8.1c-2.3,1.7-6,2.5-10.9,2.5c-4.9,0-8.4-0.7-10.3-2.2c-1.9-1.4-2.8-4.1-2.8-8
		c0-1.8,0.4-3.3,1.2-4.4c0.8-1.1,2.1-2.4,4.1-3.9c-1.1-0.7-1.6-2.2-1.6-4.5c0-0.7,0.5-2.1,1.5-4.1l0.5-1c-3.5-1.5-5.3-4.8-5.3-9.9
		c0-7.5,3.9-11.2,11.7-11.2c2.2,0,4.1,0.2,5.8,0.7l1,0.2l9.3-0.2v3.5l-6.4-0.1c1.5,1.6,2.3,4.2,2.3,7.8c0,3.6-1,6.3-2.9,7.9
		c-2,1.6-5,2.5-9.3,2.5c-1.2,0-2.3-0.1-3.3-0.3c-0.9,2.2-1.3,3.5-1.3,4.1c0,1.4,0.4,2.3,1.3,2.7c0.8,0.3,3.3,0.5,7.5,0.5
		c4.2,0,7.1,0.7,8.9,1.9C576,915.6,576.9,918.1,576.9,921.8z M553.2,922c0,2.6,0.6,4.5,1.9,5.5c1.3,1,3.8,1.5,7.5,1.5
		c3.7,0,6.3-0.5,7.9-1.6c1.6-1.1,2.4-2.9,2.4-5.4c0-2.5-0.6-4.2-1.7-4.9c-1.2-0.7-3.4-1.1-6.6-1.1l-7.3-0.3c-1.6,1.1-2.7,2.1-3.2,3
		C553.5,919.6,553.2,920.7,553.2,922z M553.7,894.4c0,2.8,0.6,4.8,1.8,6c1.2,1.2,3.2,1.7,6.1,1.7c2.9,0,4.9-0.6,6.1-1.7
		c1.2-1.1,1.8-3.1,1.8-6c0-2.9-0.6-4.9-1.8-6.1c-1.2-1.2-3.2-1.8-6.1-1.8c-2.9,0-4.9,0.6-6.1,1.8
		C554.3,889.6,553.7,891.6,553.7,894.4z"/>
	<path class="st2" d="M583.6,916.8v-32.9h3.8v4.7c1.6-1.1,3.5-2.2,5.8-3.3c2.3-1.1,4.4-1.8,6.4-2.1v3.9c-1.8,0.4-3.8,1-5.8,1.8
		c-2,0.8-3.6,1.5-4.7,2.1l-1.7,1v24.7H583.6z"/>
	<path class="st2" d="M603.3,900.3c0-6.2,1-10.6,3.1-13.2c2-2.6,5.5-3.9,10.4-3.9s8.4,1.3,10.4,3.9c2,2.6,3.1,7,3.1,13.2
		s-0.9,10.6-2.8,13.2c-1.9,2.6-5.4,3.9-10.7,3.9s-8.8-1.3-10.7-3.9C604.2,910.9,603.3,906.5,603.3,900.3z M607.3,900.2
		c0,5.2,0.6,8.8,1.8,10.8c1.2,2,3.8,3,7.7,3c4,0,6.6-1,7.8-3c1.2-2,1.8-5.6,1.8-10.8c0-5.2-0.7-8.7-2-10.6c-1.4-1.9-3.9-2.9-7.5-2.9
		c-3.7,0-6.2,0.9-7.5,2.8C607.9,891.5,607.3,895,607.3,900.2z"/>
	<path class="st2" d="M659,883.9h3.8v32.9H659v-2.4c-3.3,2.1-6.6,3.1-9.9,3.1c-4.4,0-7.3-1.1-8.7-3.4s-2.1-6.6-2.1-13v-17.2h3.8V901
		c0,5.1,0.5,8.5,1.4,10.3c0.9,1.8,2.9,2.6,6,2.6c1.5,0,3.1-0.2,4.6-0.7c1.6-0.5,2.8-0.9,3.6-1.4l1.2-0.7V883.9z"/>
	<path class="st2" d="M672.4,931.6v-47.7h3.8v2.5c3.4-2.1,6.9-3.2,10.6-3.2c3.7,0,6.5,1.3,8.3,4c1.8,2.7,2.7,7,2.7,13.1
		c0,6-1.1,10.4-3.2,13.1c-2.2,2.7-5.7,4-10.7,4c-2.7,0-5.2-0.3-7.7-0.9v15H672.4z M686,886.8c-1.4,0-2.9,0.2-4.6,0.7
		c-1.6,0.5-2.9,1-3.8,1.5l-1.4,0.7v23.4c2.9,0.5,5.5,0.8,7.6,0.8c3.7,0,6.3-1.1,7.8-3.2c1.5-2.1,2.3-5.6,2.3-10.5
		c0-4.9-0.7-8.4-2-10.4C690.6,887.9,688.7,886.8,686,886.8z"/>
	<path class="st2" d="M733,916.8h-27.1v-3.4l13.3-14.3c2.1-2.3,3.7-4.1,4.7-5.2c1-1.2,1.8-2.6,2.6-4.2c0.8-1.7,1.2-3.4,1.2-5.1
		c0-2.9-0.8-5-2.4-6.3c-1.6-1.2-4.1-1.8-7.4-1.8c-2.8,0-6,0.4-9.5,1.2l-1.7,0.4l-0.3-3.5c4-1.2,8.2-1.8,12.5-1.8
		c4.3,0,7.5,0.9,9.7,2.7c2.2,1.8,3.3,4.7,3.3,8.7c0,3-0.7,5.7-2,7.9c-1.3,2.2-3.6,5-6.7,8.2l-12.4,13H733V916.8z"/>
	<path class="st2" d="M761.3,916.8V908H740v-3.2l12.5-31.5h4.4l-12.6,31h17v-13.9h4v13.9h5.7v3.6h-5.7v8.8H761.3z"/>
</g>
<g>
	<path class="st3" d="M574.4,91.5l-24.7,87.8c0,0-118-29.4-196.6,65.8c0,0-61.5,45.9-45.4,177.3l-83.9,22.2c0,0-34.5-108,33.9-225.2
		c0,0,42.6-92.5,187.5-131.4C445.2,88,504.3,74.7,574.4,91.5z"/>
	<path class="st4" d="M458,220.3c0,0,94.6-19.3,151.4,48.9c0,0,52.6,44.8,37.4,138.6l83.9,18.9c0,0,30-108.2-53.9-213.9
		c0,0-89.7-111-236.5-72.4L458,220.3z"/>
	<path class="st5" d="M431.2,559.6L409,650.5c0,0,160.8,48.1,284.6-88c0,0,104.9-101.8,64.2-267.1l-78.4,22.2
		c0,0,9.3,132-59.2,188.8C620.2,506.3,547.6,586.3,431.2,559.6z"/>
	<path class="st6" d="M345.1,334.8c0,0-21,120.3,72.2,167.8c0,0,42.6,33.3,116,21l19.1,73.4c0,0-124.6,53.1-237.5-70.9
		c0,0-85.1-87.6-48.1-209.1L345.1,334.8z"/>
	<path class="st7" d="M451.2,431.8c-1.5-2.2-2.2-4.9-1.7-7.5c0.4-2.6,1.9-5,4-6.6l36.6-26.9v-85.5c0-2.7,1-5.2,2.9-7.1
		c1.8-1.9,4.4-2.9,7-2.9s5.1,1.1,7,2.9c1.8,1.9,2.9,4.4,2.9,7.1v95.7l-44.8,33c-2.1,1.6-4.8,2.2-7.4,1.8
		C455.1,435.5,452.8,434,451.2,431.8L451.2,431.8z"/>
</g>
</svg>
