<?xml version="1.0" encoding="utf-8"?>
<!-- Generator: Adobe Illustrator 27.5.0, SVG Export Plug-In . SVG Version: 6.00 Build 0)  -->
<svg version="1.1" id="Ebene_1" xmlns="http://www.w3.org/2000/svg" xmlns:xlink="http://www.w3.org/1999/xlink" x="0px" y="0px"
	 viewBox="0 0 1000 1000" style="enable-background:new 0 0 1000 1000;" xml:space="preserve">
<style type="text/css">
	.st0{opacity:0.7;fill:#2D296C;}
	.st1{opacity:0.7;fill:#6CBD98;}
	.st2{opacity:0.7;fill:#ED9A00;}
	.st3{opacity:0.7;fill:#0092C6;}
	.st4{opacity:0.75;}
</style>
<path class="st0" d="M617.1,88.5l-36.3,129.3c0,0-173.8-43.3-289.5,96.9c0,0-90.5,67.5-66.9,261l-123.5,32.7c0,0-50.9-159,50-331.5
	c0,0,62.7-136.3,276.1-193.5C427,83.4,513.9,63.7,617.1,88.5z"/>
<path class="st1" d="M445.8,278.1c0,0,139.3-28.5,222.8,72.1c0,0,77.5,66,55.1,204.1l123.5,27.9c0,0,44.2-159.3-79.3-314.9
	c0,0-132-163.5-348.2-106.6L445.8,278.1z"/>
<path class="st2" d="M406.4,777.7l-32.7,133.8c0,0,236.8,70.9,419.1-129.6c0,0,154.4-149.9,94.5-393.3l-115.4,32.7
	c0,0,13.6,194.4-87.2,278C684.6,699.3,577.7,817,406.4,777.7z"/>
<path class="st3" d="M279.6,446.7c0,0-30.9,177.1,106.3,247.1c0,0,62.7,49.1,170.8,30.9l28.2,108.1c0,0-183.5,78.1-349.7-104.5
	c0,0-125.4-129-70.9-307.9L279.6,446.7z"/>
<path class="st4" d="M435.8,589.6c-2.3-3.2-3.2-7.2-2.6-11.1c0.6-3.9,2.8-7.4,5.9-9.7l53.9-39.6V403.4c0-3.9,1.5-7.7,4.3-10.5
	s6.4-4.3,10.3-4.3c3.9,0,7.5,1.6,10.3,4.3c2.7,2.8,4.3,6.6,4.3,10.5v141L456.1,593c-3.1,2.3-7,3.3-10.9,2.6
	C441.4,595,438,592.8,435.8,589.6L435.8,589.6z"/>
</svg>
