<?xml version="1.0" encoding="utf-8"?>
<!-- Generator: Adobe Illustrator 27.5.0, SVG Export Plug-In . SVG Version: 6.00 Build 0)  -->
<svg version="1.1" id="Ebene_1" xmlns="http://www.w3.org/2000/svg" xmlns:xlink="http://www.w3.org/1999/xlink" x="0px" y="0px"
	 viewBox="0 0 1000 1000" style="enable-background:new 0 0 1000 1000;" xml:space="preserve">
<style type="text/css">
	.st0{fill:none;}
	.st1{fill:#6CBD98;}
	.st2{font-family:'Roboto-Bold';}
	.st3{font-size:219.3681px;}
	.st4{fill:#ED9A00;}
	.st5{font-family:'Roboto-Light';}
	.st6{fill:#B3B3B2;}
	.st7{font-family:'TitilliumWeb-Light';}
	.st8{font-size:65.8105px;}
	.st9{opacity:0.7;fill:#2D296C;}
	.st10{opacity:0.7;fill:#6CBD98;}
	.st11{opacity:0.7;fill:#ED9A00;}
	.st12{opacity:0.7;fill:#0092C6;}
	.st13{opacity:0.75;}
</style>
<rect x="132.4" y="673.6" class="st0" width="1599.8" height="308.6"/>
<text transform="matrix(0.9797 0 0 1 132.3774 838.1084)"><tspan x="0" y="0" class="st1 st2 st3">we</tspan><tspan x="279.8" y="0" class="st4 st5 st3">track</tspan></text>
<rect x="218.2" y="869.3" class="st0" width="1599.8" height="308.6"/>
<text transform="matrix(0.9797 0 0 1 218.2095 916.8398)" class="st6 st7 st8">powered by group24</text>
<g>
	<path class="st9" d="M574.4,91.5l-24.7,87.8c0,0-118-29.4-196.6,65.8c0,0-61.5,45.9-45.4,177.3l-83.9,22.2c0,0-34.5-108,33.9-225.2
		c0,0,42.6-92.5,187.5-131.4C445.2,88,504.3,74.7,574.4,91.5z"/>
	<path class="st10" d="M458,220.3c0,0,94.6-19.3,151.4,48.9c0,0,52.6,44.8,37.4,138.6l83.9,18.9c0,0,30-108.2-53.9-213.9
		c0,0-89.7-111-236.5-72.4L458,220.3z"/>
	<path class="st11" d="M431.2,559.6L409,650.5c0,0,160.8,48.1,284.6-88c0,0,104.9-101.8,64.2-267.1l-78.4,22.2
		c0,0,9.3,132-59.2,188.8C620.2,506.3,547.6,586.3,431.2,559.6z"/>
	<path class="st12" d="M345.1,334.8c0,0-21,120.3,72.2,167.8c0,0,42.6,33.3,116,21l19.1,73.4c0,0-124.6,53.1-237.5-70.9
		c0,0-85.1-87.6-48.1-209.1L345.1,334.8z"/>
	<path class="st13" d="M451.2,431.8c-1.5-2.2-2.2-4.9-1.7-7.5c0.4-2.6,1.9-5,4-6.6l36.6-26.9v-85.5c0-2.7,1-5.2,2.9-7.1
		c1.8-1.9,4.4-2.9,7-2.9s5.1,1.1,7,2.9c1.8,1.9,2.9,4.4,2.9,7.1v95.7l-44.8,33c-2.1,1.6-4.8,2.2-7.4,1.8
		C455.1,435.5,452.8,434,451.2,431.8L451.2,431.8z"/>
</g>
</svg>
